<svg width="1000" height="1000" viewBox="0 0 1000 1000" fill="none" xmlns="http://www.w3.org/2000/svg">
<rect width="1000" height="1000" fill="#1E1E1E"/>
<rect width="1000" height="1000" rx="240" fill="#FFFDF6"/>
<path d="M334.245 776.685C343.117 748.305 356.498 708.365 374.445 650.623C452.677 638.225 485.045 660.478 534.724 571.755C494.409 584.095 445.799 548.866 448.4 533.578C451.03 518.319 561.486 544.589 633.822 441.878C542.643 461.993 513.483 417.718 525.245 411.042C552.382 395.609 632.927 404.626 675.872 362.808C698.009 341.277 708.384 288.94 699.368 270.27C688.559 247.699 622.609 214.031 586.253 217.21C549.897 220.389 492.877 355.641 475.942 354.6C459.064 353.531 455.625 293.968 485.161 238.625C454.036 252.41 396.987 295.24 379.098 331.856C345.776 399.973 382.219 556.293 370.543 561.842C358.839 567.42 319.506 490.141 307.773 455.086C291.733 508.811 291.357 562.622 338.204 634.092C320.546 680.997 310.894 734.982 309.42 762.437C308.726 784.372 330.344 789.083 334.245 776.685Z" fill="#1E1E1E"/>
</svg>
